<svg width="12" height="11" viewBox="0 0 12 11" fill="none" xmlns="http://www.w3.org/2000/svg">
<g clip-path="url(#clip0_1_1369)">
<path d="M8.85899 10.9785C8.65753 10.9785 8.46727 10.9226 8.2882 10.8107L6.10576 9.43406C6.03861 9.38929 5.97146 9.38929 5.90431 9.43406L3.72188 10.8107C3.52042 10.945 3.29658 10.9953 3.05036 10.9618C2.80414 10.9282 2.59149 10.8331 2.41242 10.6764C2.18858 10.4749 2.07666 10.2175 2.07666 9.90412V1.98021C2.07666 1.68922 2.18298 1.4374 2.39563 1.22476C2.60828 1.01211 2.8601 0.905786 3.15109 0.905786H8.85899C9.14998 0.905786 9.4018 1.01211 9.61444 1.22476C9.82709 1.4374 9.93341 1.68922 9.93341 1.98021V9.90412C9.93341 10.1951 9.82709 10.4469 9.61444 10.6596C9.4018 10.8722 9.14998 10.9785 8.85899 10.9785ZM6.00504 8.52751C6.20649 8.52751 6.39676 8.58347 6.57583 8.69539L8.75826 10.072C8.78064 10.0944 8.81422 10.1056 8.85899 10.1056C8.90375 10.1056 8.94293 10.0888 8.9765 10.0552C9.01008 10.0216 9.02687 9.97127 9.02687 9.90412V1.98021C9.02687 1.91306 9.01008 1.8627 8.9765 1.82912C8.94293 1.79555 8.90375 1.77876 8.85899 1.77876H3.15109C3.10632 1.77876 3.06715 1.79555 3.03357 1.82912C3 1.8627 2.98321 1.91306 2.98321 1.98021V9.90412C2.98321 9.97127 3.01119 10.0272 3.06715 10.072C3.12311 10.1168 3.18466 10.1168 3.25182 10.072L5.43425 8.69539C5.61332 8.58347 5.80358 8.52751 6.00504 8.52751Z" fill="#050B20"/>
</g>
<defs>
<clipPath id="clip0_1_1369">
<rect width="10.0728" height="10.0728" fill="white" transform="matrix(1 0 0 -1 0.96875 10.9787)"/>
</clipPath>
</defs>
</svg>
