<svg width="24" height="24" viewBox="0 0 24 24" fill="none" xmlns="http://www.w3.org/2000/svg">
<g id="fi_17010313">
<path id="Vector" d="M14.3575 21.75H11.8683C10.8662 21.75 9.93201 21.4598 9.15564 20.903C8.74658 20.6094 8.32379 20.3058 7.7807 20.1865C7.61135 20.0865 5.11572 20.1524 4.87502 20.1344C4.38709 20.1395 4.37863 20.877 4.87502 20.8845C4.875 20.8845 7.39069 20.883 7.39069 20.883C7.89824 20.9244 8.28205 21.198 8.72937 21.5202C9.62311 22.1613 10.7086 22.5 11.8683 22.5H14.3575C15.8049 22.5 16.9825 21.3225 16.9825 19.875V17.4313C16.9825 16.3978 16.1418 15.5566 15.1084 15.5563L15 15.5562V12.6366C21.5557 11.1315 20.6683 1.69063 13.8749 1.5C10.7734 1.5 8.25 4.02338 8.25 7.125C8.25 9.84142 10.1856 12.1139 12.75 12.6366V13.875H10.9645C10.3242 13.875 9.71246 14.1489 9.28601 14.6265C8.93995 15.0102 8.54121 15.5933 7.95336 15.555C7.95337 15.555 4.875 15.555 4.875 15.555C4.38613 15.5625 4.37877 16.2961 4.87502 16.305C4.875 16.305 7.95337 16.305 7.95337 16.305C8.48694 16.305 8.99689 16.0767 9.35211 15.6788L9.84558 15.126C10.1298 14.8076 10.5377 14.625 10.9645 14.625H12.75V15.5553L12.0002 15.555C11.793 15.5549 11.625 15.7227 11.625 15.9298C11.625 16.1369 11.7927 16.305 11.9998 16.305L15.108 16.3063C15.728 16.3066 16.2325 16.8113 16.2325 17.4313V19.875C16.2325 20.9088 15.3913 21.75 14.3575 21.75ZM9 7.125C9 4.43683 11.1868 2.25 13.875 2.25C20.3424 2.51766 20.3405 11.7333 13.875 12C11.1868 12 9 9.81317 9 7.125ZM13.5 12.731C13.7479 12.7543 14.0021 12.7543 14.25 12.731V15.5559L13.5 15.5556V12.731Z" fill="black"/>
<path id="Vector_2" d="M18 7.12499C18.0307 6.6273 17.6561 4.49916 16.9104 4.90242C16.7329 5.0092 16.6756 5.23955 16.7823 5.41716C18.1257 7.58669 16.4316 10.5493 13.8749 10.4999C12.0141 10.5 10.5 8.98589 10.5 7.12499C10.4512 4.56838 13.413 2.8741 15.5829 4.2177C15.7608 4.32476 15.991 4.26689 16.0975 4.08965C16.4978 3.34079 14.3771 2.97185 13.875 2.99997C11.6005 2.99999 9.75 4.85045 9.75 7.12499C9.9765 12.597 17.7741 12.5961 18 7.12499Z" fill="black"/>
<path id="Vector_3" d="M14.7349 6.10985L13.5 7.34471L13.0151 6.85985C12.6676 6.51464 12.1392 7.04189 12.4849 7.39014C12.4849 7.39012 13.2349 8.14012 13.2349 8.14012C13.3813 8.2866 13.6187 8.2866 13.7651 8.14012L15.2651 6.64012C15.6098 6.29253 15.0836 5.76414 14.7349 6.10985Z" fill="black"/>
</g>
</svg>
