<svg width="24" height="24" viewBox="0 0 24 24" fill="none" xmlns="http://www.w3.org/2000/svg">
<g id="fi_3399161" clip-path="url(#clip0_14_822)">
<g id="Group">
<path id="Vector" d="M0.46875 24H23.5312C23.7901 24 24 23.7901 24 23.5312V22.3125C24 20.5032 22.528 19.0312 20.7188 19.0312H19.9688V18.7156C21.1028 18.1773 21.8438 17.0247 21.8438 15.75V14.8125C21.8438 13.1624 20.6192 11.7935 19.0312 11.5653V7.3125C19.0312 6.70144 18.6393 6.18038 18.0938 5.98688V3.75H21.375C21.6338 3.75 21.8438 3.54014 21.8438 3.28125V0.46875C21.8438 0.209859 21.6338 0 21.375 0H19.7344C19.4755 0 19.2656 0.209859 19.2656 0.46875C19.2656 0.727641 19.4755 0.9375 19.7344 0.9375H20.9062V2.8125H14.3438V0.9375H15.5156C15.7745 0.9375 15.9844 0.727641 15.9844 0.46875C15.9844 0.209859 15.7745 0 15.5156 0H13.875C13.6162 0 13.4062 0.209859 13.4062 0.46875V3.28125C13.4062 3.54014 13.6162 3.75 13.875 3.75H17.1562V5.98688C16.6107 6.18038 16.2188 6.70139 16.2188 7.3125V11.8893L14.5228 15.2812H13.4062V14.9656C14.5402 14.4273 15.2812 13.2747 15.2812 12V10.125C15.2812 8.31572 13.8093 6.84375 12 6.84375C10.1907 6.84375 8.71875 8.31572 8.71875 10.125V12.0005C8.71875 13.2749 9.45975 14.4273 10.5938 14.9656V15.2812H9.1875C9.02944 15.2812 8.87269 15.2931 8.71777 15.3154C8.71814 15.1799 8.71847 15.0146 8.71875 14.8125C8.71875 13.0032 7.24678 11.5312 5.4375 11.5312C3.62822 11.5312 2.15625 13.0032 2.15625 14.8125V15.7505C2.15625 17.0249 2.89725 18.1773 4.03125 18.7156V19.0312H3.28125C1.47197 19.0312 0 20.5032 0 22.3125V23.5312C0 23.7901 0.209859 24 0.46875 24ZM12 21.5303L10.7201 16.2188H10.8683L11.6685 17.019C11.7601 17.1105 11.88 17.1562 12 17.1562C12.12 17.1562 12.2399 17.1105 12.3315 17.019L13.1317 16.2188H13.2799L12 21.5303ZM19.0172 13.0512C19.0265 13.014 19.0312 12.9758 19.0312 12.9375V12.5159C20.0998 12.7337 20.9062 13.6807 20.9062 14.8125V15.75C20.9062 16.7418 20.2783 17.6302 19.3437 17.9607C19.1565 18.027 19.0312 18.204 19.0312 18.4027V19.5C19.0312 19.7589 19.2412 19.9688 19.5 19.9688H20.7188C22.0111 19.9688 23.0625 21.0202 23.0625 22.3125V23.0625H18.0938V16.7452L19.0172 13.0512ZM17.1562 7.3125C17.1562 7.05403 17.3665 6.84375 17.625 6.84375C17.8835 6.84375 18.0938 7.05403 18.0938 7.3125V7.78125H17.1562V7.3125ZM14.2442 16.2188H14.8125C14.9901 16.2188 15.1523 16.1184 15.2318 15.9596L17.1068 12.2096C17.1393 12.1445 17.1562 12.0728 17.1562 12V8.71875H18.0938V12.8798L17.1703 16.5738C17.161 16.611 17.1562 16.6492 17.1562 16.6875V23.0625H12.5951L14.2442 16.2188ZM9.65625 10.125C9.65625 8.83266 10.7077 7.78125 12 7.78125C13.2923 7.78125 14.3438 8.83266 14.3438 10.125V10.5131C13.7982 10.3196 13.4062 9.79861 13.4062 9.1875C13.4062 8.97009 13.2568 8.78123 13.0452 8.73131C12.8337 8.68125 12.6155 8.78339 12.5183 8.97783C12.0197 9.97458 11.0179 10.5938 9.90375 10.5938H9.65625V10.125ZM9.65625 12.0005V11.5312H9.90375C11.0061 11.5312 12.0252 11.0723 12.7439 10.2886C13.0679 10.8948 13.6508 11.3426 14.3438 11.4839V12C14.3438 12.9918 13.7158 13.8802 12.7812 14.2107C12.594 14.277 12.4688 14.454 12.4688 14.6527V15.5558L12 16.0246L11.5312 15.5558V14.6527C11.5312 14.454 11.406 14.277 11.2188 14.2107C10.2842 13.8802 9.65625 12.992 9.65625 12.0005ZM9.1875 16.2188H9.75577L11.4049 23.0625H8.71875V18.5625C8.71875 18.3036 8.50889 18.0938 8.25 18.0938C7.99111 18.0938 7.78125 18.3036 7.78125 18.5625V23.0625H6.84375V18.5625C6.84375 17.2665 7.89427 16.2188 9.1875 16.2188ZM0.9375 22.3125C0.9375 21.0202 1.98891 19.9688 3.28125 19.9688H4.5C4.75889 19.9688 4.96875 19.7589 4.96875 19.5V18.4027C4.96875 18.204 4.84355 18.027 4.65628 17.9607C3.72169 17.6302 3.09375 16.742 3.09375 15.7505V14.8125C3.09375 13.5202 4.14516 12.4688 5.4375 12.4688C6.72984 12.4688 7.78322 13.5202 7.78322 14.8119C7.78289 15.0432 7.78219 15.3655 7.78125 15.5987C6.6488 16.1371 5.90625 17.2891 5.90625 18.5625V23.0625H0.9375V22.3125Z" fill="black"/>
<path id="Vector_2" d="M14.8125 19.9688H15.75C16.0088 19.9688 16.2188 19.7589 16.2188 19.5C16.2188 19.2411 16.0088 19.0312 15.75 19.0312H14.8125C14.5537 19.0312 14.3438 19.2411 14.3438 19.5C14.3438 19.7589 14.5537 19.9688 14.8125 19.9688Z" fill="black"/>
<path id="Vector_3" d="M17.625 0.9375C17.8839 0.9375 18.0938 0.727633 18.0938 0.46875C18.0938 0.209867 17.8839 0 17.625 0C17.3661 0 17.1562 0.209867 17.1562 0.46875C17.1562 0.727633 17.3661 0.9375 17.625 0.9375Z" fill="black"/>
</g>
</g>
<defs>
<clipPath id="clip0_14_822">
<rect width="24" height="24" fill="white"/>
</clipPath>
</defs>
</svg>
