<svg width="24" height="24" viewBox="0 0 24 24" fill="none" xmlns="http://www.w3.org/2000/svg">
<g id="fi_10476896" clip-path="url(#clip0_14_816)">
<path id="Vector" d="M4.26863 21.2034C4.26863 21.8223 4.7722 22.3258 5.39114 22.3258C5.72442 22.3258 6.02409 22.1797 6.22988 21.9482H13.6573C13.8631 22.1797 14.1628 22.3259 14.4961 22.3259C15.115 22.3259 15.6186 21.8223 15.6186 21.2034C15.6186 20.5844 15.115 20.0809 14.4961 20.0809C14.1628 20.0809 13.8631 20.2271 13.6573 20.4585H6.22992C6.02414 20.2271 5.72447 20.0809 5.39114 20.0809C4.77225 20.0809 4.26863 20.5844 4.26863 21.2034ZM14.4961 20.5497C14.8566 20.5497 15.1499 20.8429 15.1499 21.2034C15.1499 21.5638 14.8566 21.8571 14.4961 21.8571C14.1357 21.8571 13.8424 21.5638 13.8424 21.2034C13.8424 20.8429 14.1357 20.5497 14.4961 20.5497ZM13.4081 20.9272C13.3856 21.0156 13.3736 21.1081 13.3736 21.2034C13.3736 21.2986 13.3856 21.3911 13.4081 21.4795H6.4792C6.50166 21.3912 6.51366 21.2987 6.51366 21.2034C6.51366 21.1081 6.50166 21.0156 6.4792 20.9272H13.4081ZM5.39119 20.5496C5.75166 20.5496 6.04491 20.8429 6.04491 21.2034C6.04491 21.5638 5.75166 21.8571 5.39119 21.8571C5.03072 21.8571 4.73742 21.5638 4.73742 21.2034C4.73742 20.8429 5.03067 20.5496 5.39119 20.5496ZM8.2942 9.67377L8.29416 13.8748C8.29416 13.937 8.31881 13.9966 8.36283 14.0405C8.4068 14.0845 8.46638 14.1092 8.52853 14.1092H9.92733L11.1966 16.507C11.2372 16.5837 11.3169 16.6318 11.4038 16.6318H13.9175C14.047 16.6318 14.1519 16.5268 14.1519 16.3974L14.1519 14.2148C14.1519 14.0658 14.1296 13.9427 14.0773 13.8033L12.4973 9.59145C12.4629 9.5 12.3755 9.43939 12.2778 9.43939H8.52858C8.39916 9.43939 8.2942 9.54434 8.2942 9.67377ZM8.76295 9.90814H12.1154L13.6384 13.9679C13.671 14.0549 13.6832 14.1218 13.6832 14.2148L13.6831 16.163H11.5449L10.2756 13.7652C10.235 13.6884 10.1553 13.6404 10.0685 13.6404H8.76291L8.76295 9.90814ZM5.93025 16.6228C5.93025 16.7523 5.82534 16.8572 5.69588 16.8572H2.70581C2.57634 16.8572 2.47144 16.7523 2.47144 16.6228C2.47144 16.4933 2.57634 16.3884 2.70581 16.3884H5.69588C5.8253 16.3884 5.93025 16.4934 5.93025 16.6228ZM5.93025 15.5236C5.93025 15.653 5.82534 15.758 5.69588 15.758H2.70581C2.57634 15.758 2.47144 15.653 2.47144 15.5236C2.47144 15.3941 2.57634 15.2892 2.70581 15.2892H5.69588C5.8253 15.2892 5.93025 15.3941 5.93025 15.5236ZM21.8482 16.5673V16.151C21.8482 16.1467 21.8472 16.1428 21.847 16.1386C21.85 16.1038 21.8457 16.0683 21.8328 16.0346L16.3758 1.71163C16.1406 1.09419 15.6984 0.684079 15.1308 0.556719C14.5111 0.417782 13.8301 0.633454 13.3094 1.1338L12.5643 1.84972L8.25877 5.57713C7.10058 6.57978 6.24891 7.52075 5.65505 8.4537C4.91625 9.61438 4.55709 10.7739 4.55709 11.9986V13.6404H1.69163C1.04569 13.6404 0.520172 14.166 0.520172 14.8119V17.3345C0.520172 17.9804 1.04569 18.5059 1.69163 18.5059H6.49973V18.9221H5.1442C3.88631 18.9221 2.86294 19.9454 2.86294 21.2033C2.86294 22.4612 3.88631 23.4845 5.1442 23.4845H14.7431C16.001 23.4845 17.0243 22.4612 17.0243 21.2033C17.0243 19.9454 16.001 18.9221 14.7431 18.9221H13.3876V18.5059H13.9176C14.5635 18.5059 15.089 17.9804 15.089 17.3345V14.2147C15.089 13.9502 15.0476 13.7218 14.9547 13.4741L13.3747 9.2622C13.2015 8.80053 12.7709 8.50222 12.2778 8.50222H10.6278L13.8352 5.28148L19.8984 16.1788V21.5198L19.375 22.3783C19.3531 22.4142 19.3412 22.4553 19.3408 22.4973L19.3312 23.2472C19.33 23.3331 19.376 23.4127 19.451 23.4547C19.4866 23.4747 19.5261 23.4846 19.5655 23.4846C19.609 23.4846 19.6524 23.4725 19.6905 23.4485L22.7146 21.5414C23.201 21.2347 23.4799 20.729 23.4799 20.1541V18.3724C23.4798 17.1527 22.4205 16.7376 21.8482 16.5673ZM16.5556 21.2034C16.5556 22.2027 15.7425 23.0158 14.7431 23.0158H5.1442C4.14478 23.0158 3.33169 22.2027 3.33169 21.2034C3.33169 20.204 4.14478 19.3909 5.1442 19.3909H14.7431C15.7425 19.3909 16.5556 20.204 16.5556 21.2034ZM12.9188 18.9221H6.96853V18.506H12.9188V18.9221ZM12.9357 9.42697L14.5158 13.6388C14.589 13.8341 14.6203 14.0063 14.6203 14.2148V17.3345C14.6203 17.7221 14.305 18.0373 13.9176 18.0373H8.76295V16.3975C8.76295 16.268 8.65805 16.1631 8.52858 16.1631C8.39911 16.1631 8.2942 16.268 8.2942 16.3975V18.0373H1.69163C1.30411 18.0373 0.988922 17.722 0.988922 17.3345V14.812C0.988922 14.4245 1.30416 14.1093 1.69163 14.1093H7.5915C7.72097 14.1093 7.82588 14.0044 7.82588 13.8749V9.67386C7.82588 9.28634 8.14111 8.97116 8.52858 8.97116H12.2777C12.5781 8.97106 12.8302 9.14577 12.9357 9.42697ZM8.52858 8.50231C7.88264 8.50231 7.35713 9.02783 7.35713 9.67377V13.6404H5.02589V11.9986C5.02589 9.92197 6.11756 8.05081 8.56561 5.9315L12.8756 2.2002C13.1033 2.00309 13.3987 1.90958 13.7066 1.9363C14.0182 1.96353 14.3086 2.11648 14.5034 2.35592C14.9293 2.87947 14.9143 3.53366 14.466 3.9838L9.96624 8.50231H8.52858ZM14.7981 4.31459C15.4147 3.69538 15.443 2.76833 14.867 2.06014C14.5926 1.72292 14.1845 1.50758 13.7474 1.46933C13.7123 1.46628 13.6775 1.46473 13.6427 1.46389C14.0427 1.0843 14.5725 0.911704 15.0282 1.01408C15.4432 1.10717 15.7577 1.40605 15.9377 1.87845L21.2737 15.8836H20.2706L14.1792 4.93602L14.7981 4.31459ZM23.0111 20.1542C23.0111 20.5708 22.817 20.9227 22.4646 21.1449L19.8053 22.8219L19.8086 22.5675L20.3329 21.7076C20.3554 21.6709 20.3672 21.6286 20.3672 21.5855V16.3524H21.3795V16.7394C21.3794 16.7428 21.3794 16.7463 21.3795 16.7498V19.7486C21.3795 19.878 21.4844 19.9829 21.6138 19.9829C21.7433 19.9829 21.8482 19.878 21.8482 19.7486V17.0612C22.4392 17.2638 23.0111 17.6139 23.0111 18.3725L23.0111 20.1542ZM14.1709 3.01306C14.1709 3.23553 13.9905 3.41591 13.768 3.41591C13.5456 3.41591 13.3652 3.23558 13.3652 3.01306C13.3652 2.79059 13.5456 2.61022 13.768 2.61022C13.9905 2.61022 14.1709 2.79055 14.1709 3.01306ZM10.0772 10.976C9.98564 10.8845 9.98564 10.736 10.0772 10.6445C10.1686 10.553 10.3171 10.553 10.4086 10.6445L12.2553 12.4912C12.3468 12.5827 12.3468 12.7311 12.2553 12.8226C12.2095 12.8684 12.1495 12.8913 12.0896 12.8913C12.0296 12.8913 11.9696 12.8684 11.9239 12.8226L10.0772 10.976ZM10.7935 12.5187L12.6402 14.3654C12.7317 14.4569 12.7317 14.6053 12.6402 14.6968C12.5944 14.7426 12.5344 14.7655 12.4745 14.7655C12.4145 14.7655 12.3545 14.7426 12.3088 14.6968L10.4621 12.8502C10.3705 12.7587 10.3705 12.6102 10.4621 12.5187C10.5535 12.4272 10.702 12.4272 10.7935 12.5187Z" fill="black"/>
</g>
<defs>
<clipPath id="clip0_14_816">
<rect width="24" height="24" fill="white"/>
</clipPath>
</defs>
</svg>
