<svg width="42" height="40" viewBox="0 0 42 40" fill="none" xmlns="http://www.w3.org/2000/svg">
<mask id="mask0_1_1074" style="mask-type:luminance" maskUnits="userSpaceOnUse" x="1" y="-1" width="41" height="41">
<path d="M41.209 -0.00012207H1.20898V39.9999H41.209V-0.00012207Z" fill="white"/>
</mask>
<g mask="url(#mask0_1_1074)">
<path d="M35.5077 15.2458H32.3186C31.253 13.681 29.8351 12.373 28.1832 11.4402C26.3335 10.3956 24.233 9.84351 22.109 9.84351H21.209C20.5562 9.84351 20.027 10.3727 20.027 11.0254V15.2458H6.91028C4.03034 15.2458 1.64386 17.3927 1.26331 20.1698C1.25903 20.1966 1.25537 20.2234 1.25293 20.2509C1.22516 20.4795 1.20898 20.7114 1.20898 20.9473V25.4667C1.20898 26.1194 1.73816 26.6486 2.39093 26.6486H6.52637C7.05218 28.6799 8.90063 30.1841 11.0939 30.1841C13.2872 30.1841 15.1357 28.6799 15.6615 26.6486H26.7565C27.2826 28.6799 29.1307 30.1841 31.324 30.1841C33.5173 30.1841 35.3655 28.6799 35.8916 26.6486H40.027C40.6798 26.6486 41.209 26.1194 41.209 25.4667V20.9473C41.209 17.8034 38.6513 15.2458 35.5077 15.2458ZM22.391 12.2116C25.0032 12.2865 27.481 13.4006 29.2782 15.2458H22.391V12.2116ZM3.57288 21.5339H5.39844C6.05121 21.5339 6.58038 21.0047 6.58038 20.3519C6.58038 19.6992 6.05121 19.17 5.39844 19.17H4.0877C4.67944 18.2334 5.72315 17.6099 6.91028 17.6099H20.027V24.2847H15.6615C15.1353 22.2535 13.2872 20.7489 11.0939 20.7489C8.90063 20.7489 7.05249 22.2535 6.52637 24.2847H3.57288V21.5339ZM13.4475 25.4667C13.4475 26.7646 12.3918 27.8202 11.0939 27.8202C9.79602 27.8202 8.74042 26.7646 8.74042 25.4667C8.74042 24.1688 9.79602 23.1132 11.0939 23.1132C12.3918 23.1132 13.4475 24.1688 13.4475 25.4667ZM33.6776 25.4667C33.6776 26.7646 32.6219 27.8202 31.324 27.8202C30.0262 27.8202 28.9705 26.7646 28.9705 25.4667C28.9705 24.1688 30.0262 23.1132 31.324 23.1132C32.6219 23.1132 33.6776 24.1688 33.6776 25.4667ZM35.8916 24.2847C35.3658 22.2535 33.5173 20.7489 31.324 20.7489C29.1307 20.7489 27.2823 22.2535 26.7565 24.2847H22.391V17.6099H35.5077C36.6738 17.6099 37.7019 18.2118 38.2989 19.1206H36.4696C35.8169 19.1206 35.2877 19.6498 35.2877 20.3025C35.2877 20.9553 35.8169 21.4847 36.4696 21.4847H38.8451V24.2847H35.8916Z" fill="#050B20"/>
</g>
</svg>
