<svg width="39" height="47" viewBox="0 0 39 47" fill="none" xmlns="http://www.w3.org/2000/svg">
<g clip-path="url(#clip0_1_1273)">
<path d="M17.437 40.7728C17.437 40.5939 17.3293 40.4325 17.1643 40.3638C15.235 39.5596 13.8783 37.6565 13.8783 35.4358V18.3547C13.8783 16.134 15.235 14.2309 17.1643 13.4267C17.3293 13.3579 17.437 13.1965 17.437 13.0178V13.0168H13.8783C10.9304 13.0168 8.54053 15.4067 8.54053 18.3547V35.4358C8.54053 38.3838 10.9304 40.7736 13.8783 40.7736H17.437V40.7728Z" fill="white" fill-opacity="0.1"/>
<path d="M17.7422 31.9279L27.8074 21.8626" stroke="white" stroke-width="2.27748" stroke-miterlimit="10" stroke-linecap="round" stroke-linejoin="round"/>
<path d="M22.7749 16.5754L33.4506 2.34113" stroke="white" stroke-width="2.27748" stroke-miterlimit="10" stroke-linecap="round" stroke-linejoin="round"/>
<path d="M12.0991 2.34113L19.2747 10.3917" stroke="white" stroke-width="2.27748" stroke-miterlimit="10" stroke-linecap="round" stroke-linejoin="round"/>
<path d="M37.009 23.3367V18.3547C37.009 15.4067 34.6192 13.0168 31.6712 13.0168H28.9048C27.672 10.8985 25.4024 9.45825 22.7748 9.45825C20.1472 9.45825 17.8777 10.8985 16.6448 13.0168H13.8783C10.9304 13.0168 8.54053 15.4067 8.54053 18.3547V35.4358C8.54053 38.3838 10.9304 40.7736 13.8783 40.7736H16.6448C17.8776 42.892 20.1472 44.3322 22.7748 44.3322C25.4024 44.3322 27.6719 42.892 28.9048 40.7736H31.6712C34.6192 40.7736 37.009 38.3838 37.009 35.4358V30.4538" stroke="white" stroke-width="2.27748" stroke-miterlimit="10" stroke-linecap="round" stroke-linejoin="round"/>
</g>
<defs>
<clipPath id="clip0_1_1273">
<rect width="38.7172" height="46.3088" fill="white" transform="translate(0 0.0362549)"/>
</clipPath>
</defs>
</svg>
