<svg width="46" height="47" viewBox="0 0 46 47" fill="none" xmlns="http://www.w3.org/2000/svg">
<path d="M23.1748 2.34113V5.89969" stroke="white" stroke-width="2.27748" stroke-miterlimit="10" stroke-linecap="round" stroke-linejoin="round"/>
<path d="M37.4091 2.34113L33.8506 5.89969" stroke="white" stroke-width="2.27748" stroke-miterlimit="10" stroke-linecap="round" stroke-linejoin="round"/>
<path d="M12.1469 28.3932C11.2613 27.4404 10.7197 26.1635 10.7197 24.7601C10.7197 23.9033 10.9215 23.0937 11.2804 22.3761L14.8389 15.259C15.7145 13.5078 17.5249 12.3051 19.6161 12.3051H14.2782C12.187 12.3051 10.3767 13.5078 9.50104 15.259L5.94249 22.3761C5.5837 23.0937 5.38184 23.9033 5.38184 24.7601C5.38184 26.1635 5.92345 27.4404 6.80909 28.3932L20.5675 43.1957C21.2174 43.8948 22.1449 44.3322 23.1747 44.3322C24.2044 44.3322 25.1319 43.8948 25.7818 43.1958L25.8436 43.1292L12.1469 28.3932Z" fill="white" fill-opacity="0.1"/>
<path d="M36.8483 15.259L40.4068 22.3761C40.7656 23.0936 40.9675 23.9033 40.9675 24.7601C40.9675 26.1635 40.4259 27.4405 39.5402 28.3933L25.7818 43.1958C25.1319 43.8948 24.2044 44.3322 23.1747 44.3322C22.1449 44.3322 21.2174 43.8948 20.5675 43.1958L6.80909 28.3933C5.92345 27.4405 5.38184 26.1635 5.38184 24.7601C5.38184 23.9033 5.5837 23.0936 5.94249 22.3761L9.50104 15.259C10.3767 13.5077 12.187 12.3051 14.2782 12.3051H32.0711C34.1623 12.3051 35.9726 13.5077 36.8483 15.259Z" stroke="white" stroke-width="2.27748" stroke-miterlimit="10" stroke-linecap="round" stroke-linejoin="round"/>
<path d="M8.94043 2.34113L12.499 5.89969" stroke="white" stroke-width="2.27748" stroke-miterlimit="10" stroke-linecap="round" stroke-linejoin="round"/>
<path d="M13.5977 22.9808H32.7514" stroke="white" stroke-width="2.27748" stroke-miterlimit="10" stroke-linecap="round" stroke-linejoin="round"/>
<path d="M19.6162 19.4222L23.1748 22.9808L26.7333 19.4222" stroke="white" stroke-width="2.27748" stroke-miterlimit="10" stroke-linecap="round" stroke-linejoin="round"/>
<path d="M23.1748 33.6565V23.1322" stroke="white" stroke-width="2.27748" stroke-miterlimit="10" stroke-linecap="round" stroke-linejoin="round"/>
</svg>
