<svg width="47" height="47" viewBox="0 0 47 47" fill="none" xmlns="http://www.w3.org/2000/svg">
<path d="M7.44633 28.4593L27.6018 8.30377C28.9915 6.91405 31.2447 6.91405 32.6343 8.30377L28.8089 4.47831C27.4192 3.08861 25.166 3.08861 23.7763 4.47831L3.62089 24.6338C2.23119 26.0236 2.23119 28.2767 3.62089 29.6663L7.44633 33.4918C6.05663 32.1021 6.05663 29.849 7.44633 28.4593Z" fill="white" fill-opacity="0.1"/>
<path d="M38.874 14.5434C40.2637 15.9331 40.2637 18.1863 38.874 19.576L18.7185 39.7314C17.3288 41.1212 15.0756 41.1212 13.6859 39.7314L3.62089 29.6663C2.23119 28.2767 2.23119 26.0235 3.62089 24.6338L23.7763 4.47834C25.166 3.08863 27.4192 3.08863 28.8089 4.47834L33.8415 9.51095L41.0112 2.34125" stroke="white" stroke-width="2.27748" stroke-miterlimit="10" stroke-linecap="round" stroke-linejoin="round"/>
<path d="M15.1952 24.1306C15.0432 25.2008 15.3787 26.3268 16.2019 27.1501C17.5916 28.5397 19.8448 28.5397 21.2345 27.1501C22.6242 25.7604 22.6242 23.5072 21.2345 22.1175C19.8448 20.7277 19.8448 18.4745 21.2345 17.0848C22.6242 15.6951 24.8774 15.6951 26.2671 17.0848C27.0903 17.908 27.4259 19.0341 27.2739 20.1042" stroke="white" stroke-width="2.27748" stroke-miterlimit="10" stroke-linecap="round" stroke-linejoin="round"/>
<path d="M13.6855 29.6663L16.2018 27.1501" stroke="white" stroke-width="2.27748" stroke-miterlimit="10" stroke-linecap="round" stroke-linejoin="round"/>
<path d="M26.2666 17.085L28.7828 14.5687" stroke="white" stroke-width="2.27748" stroke-miterlimit="10" stroke-linecap="round" stroke-linejoin="round"/>
<path d="M33.894 44.3322L44.5697 33.6565" stroke="white" stroke-width="2.27748" stroke-miterlimit="10" stroke-linecap="round" stroke-linejoin="round"/>
</svg>
