<svg width="46" height="47" viewBox="0 0 46 47" fill="none" xmlns="http://www.w3.org/2000/svg">
<g clip-path="url(#clip0_1_1307)">
<path d="M18.0748 3.9425C15.2649 3.9425 12.7181 5.59572 11.5742 8.16214L6.94556 18.5468C4.17077 18.7375 1.97852 21.0473 1.97852 23.8705V27.9628C1.97852 30.4194 3.97007 32.411 6.42672 32.411H7.64597C7.65255 32.0687 7.66128 31.7265 7.67222 31.3842C7.38264 30.7939 7.21939 30.1304 7.21939 29.4286L7.13843 26.2725C7.13843 23.9384 7.61332 23.0402 9.34582 22.6912C10.1694 22.5252 10.8588 21.9641 11.1963 21.1948L16.912 8.16214C18.0558 5.59572 20.6027 3.9425 23.4126 3.9425H18.0748Z" fill="white" fill-opacity="0.1"/>
<path d="M6.42672 32.411C3.97007 32.411 1.97852 30.4194 1.97852 27.9628V23.8705C1.97852 21.0473 4.17077 18.7375 6.94556 18.5468L11.5742 8.16214C12.718 5.59572 15.2648 3.9425 18.0748 3.9425H26.179C28.8531 3.9425 31.3014 5.44137 32.5175 7.82294L34.8062 12.3051M43.9695 23.8705C43.9695 20.9225 41.5797 18.5326 38.6317 18.5326H14.3445M21.6396 12.3051V4.03147M24.8423 32.411H20.8387M15.9457 28.8524C13.9804 28.8524 12.3872 30.4457 12.3872 32.411C12.3872 34.3763 13.9804 35.9696 15.9457 35.9696C17.911 35.9696 19.5043 34.3763 19.5043 32.411C19.5043 30.4457 17.9111 28.8524 15.9457 28.8524Z" stroke="white" stroke-width="2.27748" stroke-miterlimit="10" stroke-linecap="round" stroke-linejoin="round"/>
<path d="M43.9694 32.1441C43.9694 35.559 41.2012 38.3717 37.7864 38.3717C34.3717 38.3717 31.6035 35.6034 31.6035 32.1886C31.6035 28.7738 34.4161 26.0056 37.8309 26.0056M33.2493 37.0817L27.6001 42.7309" stroke="white" stroke-width="2.27748" stroke-miterlimit="10" stroke-linecap="round" stroke-linejoin="round"/>
</g>
<defs>
<clipPath id="clip0_1_1307">
<rect width="45.5496" height="46.3088" fill="white" transform="translate(0.199219 0.0362549)"/>
</clipPath>
</defs>
</svg>
