<svg width="40" height="40" viewBox="0 0 40 40" fill="none" xmlns="http://www.w3.org/2000/svg">
<path d="M31.25 16.2497H29.7875C29.6229 16.2507 29.4599 16.2192 29.3076 16.157C29.1553 16.0947 29.0168 16.0031 28.9 15.8872L25.5749 12.5623C24.7551 11.7423 23.7802 11.0935 22.7073 10.6536C21.6342 10.2136 20.4846 9.9914 19.3251 9.99974H8.75C7.0924 9.99974 5.50268 10.6582 4.33059 11.8303C3.15848 13.0024 2.5 14.5921 2.5 16.2497V22.4997C2.5 23.4943 2.89509 24.4482 3.59835 25.1514C4.30161 25.8546 5.25544 26.2497 6.25 26.2497C6.25 27.41 6.71094 28.5229 7.53141 29.3433C8.35188 30.1638 9.46468 30.6247 10.625 30.6247C11.7853 30.6247 12.8981 30.1638 13.7186 29.3433C14.5391 28.5229 15 27.41 15 26.2497H23.8751C24.0132 27.2956 24.5268 28.2556 25.3201 28.951C26.1135 29.6464 27.1325 30.0298 28.1875 30.0298C29.2425 30.0298 30.2615 29.6464 31.0548 28.951C31.8482 28.2556 32.3618 27.2956 32.5 26.2497H33.75C34.7446 26.2497 35.6984 25.8546 36.4016 25.1514C37.1049 24.4482 37.5 23.4943 37.5 22.4997C37.5 20.8422 36.8415 19.2524 35.6694 18.0803C34.4973 16.9083 32.9076 16.2497 31.25 16.2497ZM19.3875 12.4997C20.2088 12.4983 21.0224 12.6587 21.7816 12.9718C22.5409 13.285 23.2311 13.7447 23.8125 14.3247L25.7375 16.2497H10.3C10.067 16.2513 9.83827 16.1878 9.63949 16.0664C9.44071 15.9449 9.27982 15.7703 9.175 15.5623L7.725 12.6623C8.05652 12.5567 8.40209 12.5019 8.75 12.4997H19.3875ZM5 22.4997V16.2497C5.00068 15.4906 5.23169 14.7497 5.66251 14.1247L6.91251 16.6247C7.21913 17.2625 7.69994 17.8004 8.29937 18.1764C8.8988 18.5525 9.59239 18.7512 10.3 18.7497H17.5V23.7497H14.5625C14.2114 23.002 13.6546 22.3697 12.9573 21.9269C12.26 21.4839 11.4511 21.2487 10.625 21.2487C9.79894 21.2487 8.98995 21.4839 8.29266 21.9269C7.59538 22.3697 7.03861 23.002 6.68749 23.7497H6.25C5.91848 23.7497 5.60054 23.618 5.36612 23.3837C5.13169 23.1492 5 22.8312 5 22.4997ZM10.625 27.4997C10.2542 27.4997 9.89165 27.3898 9.58331 27.1838C9.27497 26.9777 9.03464 26.6849 8.89273 26.3423C8.75081 25.9997 8.71368 25.6226 8.78602 25.259C8.85838 24.8952 9.03695 24.5611 9.29918 24.2989C9.5614 24.0367 9.89549 23.8581 10.2592 23.7858C10.6229 23.7134 10.9999 23.7505 11.3425 23.8925C11.6851 24.0344 11.978 24.2747 12.184 24.5831C12.39 24.8913 12.5 25.2539 12.5 25.6247C12.5 26.122 12.3025 26.599 11.9508 26.9505C11.5992 27.3022 11.1223 27.4997 10.625 27.4997ZM28.1249 27.4997C27.7541 27.4997 27.3916 27.3898 27.0833 27.1838C26.7749 26.9777 26.5346 26.6849 26.3927 26.3423C26.2508 25.9997 26.2136 25.6226 26.286 25.259C26.3584 24.8952 26.5369 24.5611 26.7992 24.2989C27.0614 24.0367 27.3955 23.8581 27.7592 23.7858C28.1229 23.7134 28.4999 23.7505 28.8426 23.8925C29.1852 24.0344 29.478 24.2747 29.684 24.5831C29.89 24.8913 30 25.2539 30 25.6247C30 26.122 29.8025 26.599 29.4508 26.9505C29.0992 27.3022 28.6222 27.4997 28.1249 27.4997ZM33.75 23.7497H32.0625C31.7114 23.002 31.1546 22.3697 30.4573 21.9269C29.76 21.4839 28.9511 21.2487 28.1249 21.2487C27.2989 21.2487 26.49 21.4839 25.7927 21.9269C25.0954 22.3697 24.5386 23.002 24.1875 23.7497H20V18.7497H31.25C31.7742 18.7525 32.292 18.8652 32.77 19.0805C33.248 19.2959 33.6755 19.609 34.0249 19.9997H33.75C33.4185 19.9997 33.1006 20.1314 32.8661 20.3658C32.6316 20.6003 32.5 20.9183 32.5 21.2497C32.5 21.5812 32.6316 21.8992 32.8661 22.1337C33.1006 22.368 33.4185 22.4997 33.75 22.4997H35C35 22.8312 34.8684 23.1492 34.6339 23.3837C34.3994 23.618 34.0815 23.7497 33.75 23.7497Z" fill="#050B20"/>
</svg>
