<svg width="40" height="40" viewBox="0 0 40 40" fill="none" xmlns="http://www.w3.org/2000/svg">
<path d="M35.9287 18.5249L30.9451 16.5323L28.0487 9.77363C27.4562 8.39237 26.1038 7.49988 24.6013 7.49988H13.1362C11.4712 7.49988 9.98751 8.61863 9.53 10.2199L7.80749 16.2499H5C3.62125 16.2499 2.5 17.3712 2.5 18.7499V26.2499C2.5 27.6286 3.62125 28.7499 5 28.7499H7.67751C8.23625 30.8999 10.1775 32.4999 12.5 32.4999C14.8225 32.4999 16.7638 30.8999 17.3225 28.7499H22.6775C23.2362 30.8999 25.1775 32.4999 27.5 32.4999C29.8225 32.4999 31.7638 30.8999 32.3225 28.7499H35C36.3787 28.7499 37.5 27.6286 37.5 26.2499V20.8461C37.5 19.8174 36.8838 18.9061 35.9287 18.5249ZM12.5 29.9999C11.1212 29.9999 10 28.8786 10 27.4999C10 26.1212 11.1212 24.9999 12.5 24.9999C13.8787 24.9999 15 26.1212 15 27.4999C15 28.8786 13.8787 29.9999 12.5 29.9999ZM27.5 29.9999C26.1213 29.9999 25 28.8786 25 27.4999C25 26.1212 26.1213 24.9999 27.5 24.9999C28.8787 24.9999 30 26.1212 30 27.4999C30 28.8786 28.8787 29.9999 27.5 29.9999ZM35 26.2499H32.3225C31.7638 24.0999 29.8225 22.4999 27.5 22.4999C25.1775 22.4999 23.2362 24.0999 22.6775 26.2499H17.3225C16.7638 24.0999 14.8225 22.4999 12.5 22.4999C10.1775 22.4999 8.23625 24.0999 7.67751 26.2499H5V18.7499H8.75C9.30751 18.7499 9.79875 18.3799 9.95125 17.8436L11.9325 10.9074C12.0862 10.3724 12.58 9.99988 13.1362 9.99988H24.6013C25.1013 9.99988 25.5525 10.2974 25.75 10.7574L28.85 17.9923C28.98 18.2974 29.2262 18.5374 29.5338 18.6612L35 20.8461V26.2499Z" fill="#050B20"/>
<path d="M18.0566 22.2898C17.4828 21.9073 17.3279 21.1311 17.7104 20.556L18.9141 18.7498H17.5004C17.0392 18.7498 16.6154 18.496 16.3979 18.0898C16.1804 17.6835 16.2041 17.1898 16.4604 16.8073L18.9604 13.0573C19.3428 12.4824 20.1192 12.3273 20.6941 12.7111C21.2679 13.0935 21.4228 13.8698 21.0404 14.4448L19.8366 16.2498H21.2504C21.7117 16.2498 22.1354 16.5035 22.3528 16.9098C22.5704 17.316 22.5466 17.8098 22.2904 18.1924L19.7904 21.9424C19.4066 22.5186 18.6292 22.6724 18.0566 22.2898Z" fill="#050B20"/>
</svg>
