<svg width="11" height="11" viewBox="0 0 11 11" fill="none" xmlns="http://www.w3.org/2000/svg">
<path d="M5.71843 2.96229C7.11961 2.96229 8.27615 4.11882 8.27615 5.52001C8.27615 6.94343 7.11961 8.07772 5.71843 8.07772C4.29501 8.07772 3.16071 6.94343 3.16071 5.52001C3.16071 4.11882 4.29501 2.96229 5.71843 2.96229ZM5.71843 7.18808C6.63031 7.18808 7.36427 6.45413 7.36427 5.52001C7.36427 4.60813 6.63031 3.87417 5.71843 3.87417C4.78431 3.87417 4.05035 4.60813 4.05035 5.52001C4.05035 6.45413 4.80655 7.18808 5.71843 7.18808ZM8.96562 2.87333C8.96562 3.20694 8.69873 3.47383 8.36511 3.47383C8.0315 3.47383 7.7646 3.20694 7.7646 2.87333C7.7646 2.53971 8.0315 2.27282 8.36511 2.27282C8.69873 2.27282 8.96562 2.53971 8.96562 2.87333ZM10.6559 3.47383C10.7004 4.29675 10.7004 6.7655 10.6559 7.58842C10.6115 8.3891 10.4335 9.07857 9.85526 9.67908C9.27699 10.2573 8.56528 10.4353 7.7646 10.4798C6.94169 10.5242 4.47293 10.5242 3.65002 10.4798C2.84934 10.4353 2.15987 10.2573 1.55936 9.67908C0.981093 9.07857 0.803165 8.3891 0.758683 7.58842C0.714201 6.7655 0.714201 4.29675 0.758683 3.47383C0.803165 2.67316 0.981093 1.96144 1.55936 1.38318C2.15987 0.804911 2.84934 0.626983 3.65002 0.582501C4.47293 0.538019 6.94169 0.538019 7.7646 0.582501C8.56528 0.626983 9.27699 0.804911 9.85526 1.38318C10.4335 1.96144 10.6115 2.67316 10.6559 3.47383ZM9.58837 8.45582C9.85526 7.81083 9.78854 6.25396 9.78854 5.52001C9.78854 4.80829 9.85526 3.25142 9.58837 2.58419C9.41044 2.16161 9.07682 1.80576 8.65425 1.65007C7.98701 1.38318 6.43014 1.4499 5.71843 1.4499C4.98448 1.4499 3.42761 1.38318 2.78262 1.65007C2.3378 1.828 2.00418 2.16161 1.82625 2.58419C1.55936 3.25142 1.62608 4.80829 1.62608 5.52001C1.62608 6.25396 1.55936 7.81083 1.82625 8.45582C2.00418 8.90064 2.3378 9.23426 2.78262 9.41219C3.42761 9.67908 4.98448 9.61236 5.71843 9.61236C6.43014 9.61236 7.98701 9.67908 8.65425 9.41219C9.07682 9.23426 9.43268 8.90064 9.58837 8.45582Z" fill="white"/>
<a href="https://www.figma.com/design/PzQUNVEIeMrv8HjdXbjYra?node-id=17-711">
<rect fill="black" fill-opacity="0" x="0.135368" y="-0.854055" width="9.96398" height="13.0955"/>
</a>
</svg>
