<svg width="11" height="11" viewBox="0 0 11 11" fill="none" xmlns="http://www.w3.org/2000/svg">
<path d="M3.15927 10.7903H1.09086V4.14022H3.15927V10.7903ZM2.11395 3.25058C1.46896 3.25058 0.935173 2.69455 0.935173 2.02732C0.935173 1.38233 1.46896 0.848547 2.11395 0.848547C2.78118 0.848547 3.31496 1.38233 3.31496 2.02732C3.31496 2.69455 2.78118 3.25058 2.11395 3.25058ZM10.8769 10.7903H8.83073V7.56534C8.83073 6.7869 8.80849 5.80829 7.74092 5.80829C6.67336 5.80829 6.51767 6.63121 6.51767 7.49861V10.7903H4.44925V4.14022H6.4287V5.0521H6.45095C6.74008 4.54056 7.40731 3.98453 8.40816 3.98453C10.4988 3.98453 10.8991 5.36347 10.8991 7.14276V10.7903H10.8769Z" fill="white"/>
<a href="https://www.figma.com/design/PzQUNVEIeMrv8HjdXbjYra?node-id=17-711">
<rect fill="black" fill-opacity="0" x="0.135368" y="-0.854055" width="9.96398" height="13.0955"/>
</a>
</svg>
