<svg width="24" height="24" viewBox="0 0 24 24" fill="none" xmlns="http://www.w3.org/2000/svg">
<path d="M10.9599 1.92C9.30659 1.92 7.79992 2.32 6.43992 3.12C5.07992 3.92 3.98659 5.01333 3.15992 6.4C2.33326 7.78667 1.91992 9.29333 1.91992 10.92C1.91992 12.5467 2.33326 14.0533 3.15992 15.44C3.98659 16.8267 5.07992 17.92 6.43992 18.72C7.79992 19.52 9.30659 19.92 10.9599 19.92C11.9733 19.92 12.9599 19.7467 13.9199 19.4C14.8799 19.0533 15.7599 18.5867 16.5599 18L20.3199 21.68C20.4799 21.8933 20.7066 22 20.9999 22C21.2933 22 21.5333 21.9067 21.7199 21.72C21.9066 21.5333 21.9999 21.2933 21.9999 21C21.9999 20.7067 21.8933 20.48 21.6799 20.32L17.9999 16.56C18.5866 15.76 19.0533 14.88 19.3999 13.92C19.7466 12.96 19.9199 11.9733 19.9199 10.96C19.9199 9.30667 19.5199 7.78667 18.7199 6.4C17.9199 5.01333 16.8266 3.92 15.4399 3.12C14.0533 2.32 12.5599 1.92 10.9599 1.92ZM10.9599 3.92C12.2399 3.92 13.4133 4.24 14.4799 4.88C15.5466 5.52 16.3866 6.37333 16.9999 7.44C17.6133 8.50667 17.9199 9.66667 17.9199 10.92C17.9199 12.1733 17.6133 13.3467 16.9999 14.44C16.3866 15.5333 15.5466 16.3867 14.4799 17C13.4133 17.6133 12.2399 17.92 10.9599 17.92C9.67992 17.92 8.50659 17.6133 7.43992 17C6.37326 16.3867 5.51992 15.5333 4.87992 14.44C4.23992 13.3467 3.91992 12.1733 3.91992 10.92C3.91992 9.66667 4.23992 8.50667 4.87992 7.44C5.51992 6.37333 6.37326 5.52 7.43992 4.88C8.50659 4.24 9.67992 3.92 10.9599 3.92Z" fill="white"/>
</svg>
