<svg width="42" height="40" viewBox="0 0 42 40" fill="none" xmlns="http://www.w3.org/2000/svg">
<mask id="mask0_1_1062" style="mask-type:luminance" maskUnits="userSpaceOnUse" x="1" y="-1" width="41" height="41">
<path d="M41.209 -0.00012207H1.20898V39.9999H41.209V-0.00012207Z" fill="white"/>
</mask>
<g mask="url(#mask0_1_1062)">
<path d="M37.396 18.3377L30.4911 17.1863C30.0873 16.5305 29.2847 15.3443 28.1178 14.1558C25.7886 11.7837 23.107 10.5299 20.3626 10.5299H9.11781C7.29125 10.5299 5.59774 11.5175 4.69813 13.1072L1.59945 18.5835C1.59445 18.5923 1.5907 18.6015 1.58594 18.6104C1.34625 19.0393 1.20898 19.533 1.20898 20.0584V25.8289C1.20898 26.476 1.73367 27.0006 2.38086 27.0006H6.13407C6.68493 28.442 8.08898 29.4696 9.73062 29.4696C11.3723 29.4696 12.7763 28.442 13.3272 27.0006H27.8819C28.4328 28.442 29.8368 29.4696 31.4784 29.4696C33.12 29.4696 34.524 28.442 35.0749 27.0006H40.0371C40.6843 27.0006 41.209 26.476 41.209 25.8289V22.7265C41.209 20.5282 39.571 18.6446 37.396 18.3377ZM27.5591 17.0799H19.1172V12.8737H20.3626C23.6843 12.8737 26.1929 15.3293 27.5591 17.0799ZM11.2957 12.8737H16.7736V17.0799H11.2957V12.8737ZM6.73797 14.2615C7.195 13.4538 8.03266 12.9353 8.95195 12.8793V17.0799H5.14313L6.73797 14.2615ZM9.73062 27.1258C8.90227 27.1258 8.22836 26.4632 8.22836 25.6486C8.22836 24.8342 8.90227 24.1715 9.73062 24.1715C10.559 24.1715 11.2329 24.8342 11.2329 25.6486C11.2329 26.4632 10.559 27.1258 9.73062 27.1258ZM31.4784 27.1258C30.6499 27.1258 29.976 26.4632 29.976 25.6486C29.976 24.8342 30.65 24.1715 31.4784 24.1715C32.3068 24.1715 32.9806 24.8342 32.9806 25.6486C32.9806 26.4632 32.3068 27.1258 31.4784 27.1258ZM35.1922 24.6569C34.7515 23.0295 33.2538 21.8277 31.4784 21.8277C29.7029 21.8277 28.2053 23.0295 27.7644 24.6569H13.4444C13.0037 23.0295 11.5061 21.8277 9.73062 21.8277C7.95516 21.8277 6.45757 23.0295 6.01671 24.6569H3.55274V20.0584C3.55274 19.7084 3.83742 19.4237 4.18742 19.4237H29.6596L37.026 20.6522C37.0373 20.654 37.0486 20.6558 37.06 20.6573C37.2593 20.6846 37.449 20.7403 37.6256 20.8193C37.1353 20.9596 36.776 21.41 36.776 21.9453C36.776 22.5925 37.3008 23.1172 37.9479 23.1172H38.8652V24.657L35.1922 24.6569Z" fill="#050B20"/>
</g>
</svg>
