<svg width="40" height="40" viewBox="0 0 40 40" fill="none" xmlns="http://www.w3.org/2000/svg">
<mask id="mask0_1_1053" style="mask-type:luminance" maskUnits="userSpaceOnUse" x="0" y="0" width="40" height="40">
<path d="M40 0H0V40H40V0Z" fill="white"/>
</mask>
<g mask="url(#mask0_1_1053)">
<path d="M38.6956 25.2173H37.3913V18.6956C37.3913 16.5378 35.6359 14.7825 33.4782 14.7825H29.2011L27.4842 9.63196C26.9506 8.03166 25.4587 6.95642 23.7719 6.95642C23.5687 6.95642 9.46742 6.95642 9.13039 6.95642C7.42992 6.95642 5.98015 8.04696 5.44172 9.56509H3.91305C1.75539 9.56509 0 11.3205 0 13.4781V18.6956C0 20.8533 1.75539 22.6085 3.91305 22.6085H5.21742V25.2173H3.91305C3.19273 25.2173 2.60867 25.8013 2.60867 26.5216C2.60867 27.2421 3.19266 27.8261 3.91305 27.8261C5.13461 27.8261 6.60047 27.8261 7.82609 27.8261C7.82609 30.7029 10.1666 33.0435 13.0435 33.0435C15.9204 33.0435 18.2609 30.7029 18.2609 27.8261H24.3479C24.3479 30.7029 26.6885 33.0435 29.5653 33.0435C32.4422 33.0435 34.7827 30.7029 34.7827 27.8261C36.0087 27.8261 37.4751 27.8261 38.6958 27.8261C39.4161 27.8261 40.0001 27.2421 40.0001 26.5216C40.0001 25.8013 39.416 25.2173 38.6956 25.2173ZM5.21742 19.9998H3.91305C3.19382 19.9998 2.60867 19.4147 2.60867 18.6955V13.4781C2.60867 12.7588 3.19382 12.1737 3.91305 12.1737H5.21742C5.21742 13.0048 5.21742 19.194 5.21742 19.9998ZM18.2608 9.56509H20.4348H23.7719C24.3342 9.56509 24.8315 9.92353 25.0093 10.4569L26.4511 14.7824H18.2608V9.56509ZM7.82609 10.8694C7.82609 10.1502 8.41125 9.56501 9.13047 9.56501H15.6522V14.7824H7.82609V10.8694ZM13.0435 30.4347C11.6051 30.4347 10.4348 29.2644 10.4348 27.826C10.4348 26.3875 11.6051 25.2173 13.0435 25.2173C14.482 25.2173 15.6522 26.3875 15.6522 27.826C15.6522 29.2644 14.482 30.4347 13.0435 30.4347ZM29.5652 30.4347C28.1268 30.4347 26.9566 29.2644 26.9566 27.826C26.9566 26.3875 28.1268 25.2173 29.5652 25.2173C31.0036 25.2173 32.1739 26.3875 32.1739 27.826C32.1739 29.2644 31.0036 30.4347 29.5652 30.4347ZM34.7826 25.2173H34.0807C33.1771 23.6594 31.4921 22.6085 29.5652 22.6085C27.6384 22.6085 25.9534 23.6594 25.0498 25.2173H17.5589C16.6554 23.6594 14.9704 22.6085 13.0435 22.6085C11.1166 22.6085 9.43164 23.6594 8.52805 25.2173H7.82618V21.3042V17.3911C9.9532 17.3911 32.0816 17.3911 33.4784 17.3911C34.1975 17.3911 34.7827 17.9763 34.7827 18.6956L34.7826 25.2173Z" fill="#050B20"/>
<path d="M22.1743 20H19.5656C18.8452 20 18.2612 20.584 18.2612 21.3044C18.2612 22.0247 18.8452 22.6087 19.5656 22.6087H22.1743C22.8945 22.6087 23.4786 22.0248 23.4786 21.3044C23.4786 20.584 22.8946 20 22.1743 20Z" fill="#050B20"/>
</g>
</svg>
