<svg width="13" height="11" viewBox="0 0 13 11" fill="none" xmlns="http://www.w3.org/2000/svg">
<path d="M11.0394 3.20694C11.0394 3.31815 11.0394 3.40711 11.0394 3.51832C11.0394 6.60982 8.70414 10.1461 4.41162 10.1461C3.07716 10.1461 1.85391 9.76804 0.830819 9.10081C1.00875 9.12305 1.18668 9.14529 1.38684 9.14529C2.47665 9.14529 3.4775 8.7672 4.27818 8.14445C3.25509 8.12221 2.38769 7.45498 2.09856 6.52085C2.25424 6.54309 2.38769 6.56534 2.54338 6.56534C2.74355 6.56534 2.96596 6.52085 3.14389 6.47637C2.07632 6.25396 1.27564 5.31984 1.27564 4.18555V4.1633C1.58701 4.34123 1.96511 4.4302 2.34321 4.45244C1.69822 4.02986 1.29788 3.31815 1.29788 2.51747C1.29788 2.07265 1.40909 1.67231 1.60925 1.3387C2.76579 2.73988 4.50059 3.674 6.43556 3.78521C6.39107 3.60728 6.36883 3.42935 6.36883 3.25142C6.36883 1.96144 7.41416 0.916116 8.70414 0.916116C9.37137 0.916116 9.97188 1.18301 10.4167 1.65007C10.9282 1.53886 11.4398 1.3387 11.8846 1.0718C11.7067 1.62783 11.3508 2.07265 10.8615 2.36178C11.3286 2.3173 11.7956 2.18385 12.196 2.00593C11.8846 2.47299 11.4843 2.87333 11.0394 3.20694Z" fill="white"/>
<a href="https://www.figma.com/design/PzQUNVEIeMrv8HjdXbjYra?node-id=17-711">
<rect fill="black" fill-opacity="0" x="0.142343" y="-0.854055" width="11.3874" height="13.0955"/>
</a>
</svg>
